<?xml version="1.0" encoding="iso-8859-1"?>
<!-- Uploaded to: SVG Repo, www.svgrepo.com, Generator: SVG Repo Mixer Tools -->
<svg height="800px" width="800px" version="1.1" id="Layer_1" xmlns="http://www.w3.org/2000/svg" xmlns:xlink="http://www.w3.org/1999/xlink" 
	 viewBox="0 0 508 508" xml:space="preserve">
<circle style="fill:#324A5E;" cx="254" cy="254" r="254"/>
<circle style="fill:#54C0EB;" cx="254" cy="260.6" r="169.2"/>
<g>
	<path style="fill:#FFFFFF;" d="M423.2,260.6c0,64-35.5,119.7-87.9,148.5V409c1.1-11.7,3.9-23.2,8.2-34.1c0.6-1.5,1.2-3.2,0.6-4.7
		c-0.5-1.2-1.6-2-2.6-2.8c-9.4-7.6-10.8-21-13.6-32.8c-0.4-1.8-1-3.8-2.4-5c-1-0.9-2.2-1.3-3.5-1.7c-6.7-2-13.9-2.5-20.6-4.6
		s-13.4-6.3-15.8-12.9c-3.2-8.8,1.9-18.2,3.7-27.4c0.8-3.9,0.9-7.9,0.4-11.8c-0.3-2.3-0.7-4.8,0.6-6.7c0.8-1.1,2-1.9,3.3-2.5
		c12.2-6.7,24.7-13.5,38.6-15.1c4.3-0.5,9-0.3,12.5,2.3c2.5,2,4.1,5,6.7,6.8c2.8,1.9,6.4,2.1,9.9,2.1c10.7-0.1,21.4-1.4,31.8-4.1
		c2.1-0.5,4.4-1.3,5.5-3.2c1.9-3.3-1.1-7.2-4.2-9.3c-6.8-4.7-15.4-6.9-23.6-6.1c-1.8,0.2-3.7,0.5-5.3-0.4c-1.4-0.8-2.1-2.2-3-3.5
		c-4.1-6.4-11.3-10.9-18.9-10.6c-7.5,0.3-14.8,6.1-15.8,13.6c-0.6,4.5,0.1,10.6-4.1,12.1c-1.4,0.5-2.9,0.2-4.3,0
		c-5-0.9-10.1-2.2-13.9-5.4c-3.8-3.3-5.8-9.2-3.1-13.5c7-1.5,13.8-3.6,20.4-6.4c-2-3-4-6-6-9c-0.7-1.1-1.5-2.3-1.4-3.6
		c0.4-4.6,8.8-2.8,11.2-6.8c1-1.6,0.7-3.9,1.9-5.3c0.9-1.1,2.4-1.3,3.8-1.5c7.2-1.1,14.5-2.2,21.7-3.3c5.2-0.8,11.1-2.1,13.4-6.8
		c0.7-1.5,1-3.3,1.8-4.7c2.8-5.3,10.8-5.5,14.5-10.2c-4.7,1.7-10,2-14.9,0.8c1.9-4,3.8-8.2,3.2-12.6c-0.7-4.3-5.1-8.4-9.3-6.8
		c-4.3,1.6-4.9,7.2-4.8,11.8c0.1,4.2,0.1,8.4,0.2,12.7c0,2,0,4.2-1.2,5.8c-2.7,3.4-8,1.4-11.7-0.8c-1,3.6-6.4,3.3-9.3,1
		c-6.1-4.9-6.2-15.4-0.3-20.5c2-1.7,4.8-3.1,5.2-5.7c0.4-2-0.8-4.3,0.4-6c0.8-1.1,2.3-1.4,3.6-1.7c8.3-2.1,14.6-9.8,16.1-18.2
		C398.8,160.2,423.2,207.5,423.2,260.6z"/>
	<path style="fill:#FFFFFF;" d="M279.3,122.1c-2,2.9-4.7,5.4-6.2,8.6c-1.2,2.5-1.7,5.2-3.1,7.6c-5.2,8.8-20.9,9.1-22.8,19.2
		c-0.4,2.3,0,4.8-1,6.8c-1.2,2.4-4.3,3.5-7,3.2c-7.6-0.9-10.9-10.4-10.7-18.1c0.2-7.7,2.1-16-1.7-22.7c-3.5-6.2-10.7-9-16.7-12.8
		c-5-3.1-9.6-8.5-9.6-14c16.8-5.6,34.7-8.6,53.4-8.6c10.5,0,20.8,1,30.8,2.8C285.4,104.1,284.8,114.2,279.3,122.1z"/>
	<path style="fill:#FFFFFF;" d="M213.4,192.9c-0.9,3.6-3.9,7-7.6,7c-2.5,0.1-5.4-1.2-7.2,0.5c-1.5,1.4-1.1,3.7-1,5.8
		c0.3,5-1.9,10-5.7,13.3c-2.1,1.8-4.6,3.1-6.5,5c-2.5,2.6-3.6,6.1-5.1,9.3c-7.3,15.1-23.9,23.2-39.8,28.7c-5,1.7-10.7,3.9-12.7,8.8
		c-1.6,3.9,0.1,8.9,3.7,11.1c3.6,2.2,8.8,1.4,11.6-1.8c0.5,5,1.1,10.2,4.3,14.1c1.9,2.4,4.6,3.9,6.8,6.1c2.2,2.1,3.9,5.3,2.9,8.2
		c-3.1,2.5-8.3,1.8-10.7-1.3c-2.1-2.7-2.2-6.5-4.4-9.2c-4-4.9-11.7-2.9-18-3.4c-10.5-0.9-19.1-11.5-17.8-22c0.2-1.7,0.6-3.6-0.4-5.1
		c-0.8-1.1-2.2-1.6-3.4-2.1c-4-1.7-7.4-5-9.3-8.9c-1-2.1-1.6-4.5-3.2-6.2c-1.2-1.3-2.9-2.1-4.6-2.8c4.9-66.2,47.9-121.9,107.2-145.1
		c0.4,4.4-0.4,8.8-4.1,10.6c-1.1,0.5-2.3,0.8-3.2,1.6c-1.6,1.5-1.4,4.2-0.2,6s3.2,2.9,5.1,4.1c10,6.3,18.7,16.6,18.2,28.4
		c-0.2,3.6-1.5,7.6-4.8,8.9c-2.5,1-5.4,0.2-8-0.7c-3.9-1.4-8.2-3.8-8.8-7.9c-0.4-2.5,0.8-5.1,0.9-7.7c0.1-2.6-1.7-5.7-4.2-5.3
		c-2,0.4-2.9,2.8-2.8,4.8c0,2,0.6,4.1,0.1,6c-0.8,2.9-3.6,4.7-6.3,6.1c-2.7,1.5-5.5,3-8.2,4.6c-3.9,2.1-7.9,4.4-10.3,8.2
		c-2.4,3.8-2.3,9.4,1.3,12c1.9,1.3,4.3,1.6,6.2,3c2.9,2.2,3.2,6.3,4.6,9.7c1.4,3.3,6,6.1,8.4,3.4c0.7-0.8,1-1.8,1.2-2.9
		c0.9-4.7,0.2-9.5,0.4-14.2c0.2-4.8,1.4-9.8,5-12.9c3.6-3.1,10.1-2.9,12.3,1.3c0.5,0.9,0.7,1.8,1.3,2.6c2.8,3.8,9.4-0.1,13.3,2.5
		c2.1,1.4,2.7,4.1,3.2,6.5C213.6,185.4,214.3,189.2,213.4,192.9z"/>
	<path style="fill:#FFFFFF;" d="M243.9,359.2c-3.3,4-3.1,9.8-4.5,14.8c-3.5,13-17,20.3-25.1,31c-1.9,2.5-3.6,5.3-6.2,7
		c-2.4,1.7-5.5,2.3-7.6,4.3c-1.2,1.1-2,2.5-2.6,4c-6.8-2.4-13.3-5.1-19.7-8.3c0-3.2,0.2-6.4,0.6-9.5c1.2-8.9,3.9-18.2,0.6-26.6
		c-3.1-7.7-10.6-12.5-16.1-18.8c-4.3-5-7.4-11-8.9-17.4c-0.7-2.9-1-6.2,0.7-8.8c1.1-1.7,3-2.8,4.1-4.5c2.9-4.3,0.2-10.6,3-14.9
		c1.4-2.2,4-3.3,6.6-4.1c17.7-5.6,38.6,1.2,49.7,16.1c1.2,1.6,2.3,3.3,4,4.4c4.3,2.8,11.2,0.8,14.2,4.9c1.1,1.5,1.3,3.5,2.3,5.1
		c3,4.9,12.1,5.1,12.6,10.8C252.1,353.3,246.8,355.7,243.9,359.2z"/>
</g>
<path style="fill:#FF7058;" d="M413.3,143.3c0,42.2-76.5,149.6-76.5,149.6s-76.5-107.4-76.5-149.6s34.2-76.5,76.5-76.5
	C379.1,66.9,413.3,101.1,413.3,143.3z"/>
<circle style="fill:#FFFFFF;" cx="336.9" cy="143.3" r="42.1"/>
<path style="fill:#FF7058;" d="M234.5,271.8c0,25.8-46.6,91.2-46.6,91.2s-46.6-65.5-46.6-91.2c0-25.8,20.9-46.6,46.6-46.6
	S234.5,246.1,234.5,271.8z"/>
<circle style="fill:#FFFFFF;" cx="187.9" cy="271.8" r="25.6"/>
</svg>